<?xml version="1.0" standalone="no"?>
<!DOCTYPE svg PUBLIC "-//W3C//DTD SVG 20010904//EN"
 "http://www.w3.org/TR/2001/REC-SVG-20010904/DTD/svg10.dtd">
<svg version="1.0" xmlns="http://www.w3.org/2000/svg"
 width="700.000000pt" height="700.000000pt" viewBox="0 0 700.000000 700.000000"
 preserveAspectRatio="xMidYMid meet">
<metadata>
Created by potrace 1.14, written by Peter Selinger 2001-2017
</metadata>
<g transform="translate(0.000000,700.000000) scale(0.100000,-0.100000)"
fill="#000000" stroke="none">
<path d="M1388 6415 c-2 -2 -28 -5 -58 -8 -165 -18 -374 -126 -504 -261 -122
-128 -213 -315 -234 -480 -4 -28 -7 -868 -7 -1866 0 -2057 -8 -1864 84 -1959
88 -90 220 -114 334 -61 32 15 161 138 472 449 l427 428 214 0 c147 0 214 -4
215 -11 0 -6 2 -126 3 -266 3 -256 12 -329 49 -435 92 -258 314 -469 572 -544
39 -11 84 -24 100 -27 17 -4 509 -9 1095 -10 586 -2 1068 -3 1071 -4 3 0 167
-162 365 -360 406 -408 414 -414 538 -413 103 1 183 43 243 128 52 74 50 13
48 1665 l-1 1535 -22 82 c-82 314 -321 559 -622 638 -98 26 -129 29 -332 30
l-188 0 -1 475 c0 261 -2 484 -3 495 -30 218 -109 379 -260 529 -126 125 -280
205 -458 239 -61 11 -340 14 -1606 14 -842 0 -1533 -1 -1534 -2z m3102 -608
c70 -31 116 -77 149 -147 l26 -55 1 -467 c0 -420 -1 -468 -15 -469 -9 0 -362
-2 -786 -3 -831 -3 -824 -2 -970 -57 -260 -99 -461 -327 -537 -607 -18 -69
-21 -111 -24 -407 -1 -181 -3 -335 -3 -342 -1 -9 -72 -12 -298 -12 -318 0
-345 -3 -416 -53 -18 -12 -125 -116 -239 -232 -115 -115 -208 -203 -209 -195
0 8 -1 647 -1 1420 -1 1122 2 1413 12 1445 36 110 125 186 236 202 26 4 716 6
1533 6 l1486 -2 55 -25z m1148 -1742 c89 -32 152 -98 182 -190 11 -32 13 -259
12 -1145 0 -608 -1 -1115 -1 -1126 -1 -16 -39 17 -163 140 -112 111 -179 169
-213 186 l-50 25 -1116 1 c-1281 1 -1189 -5 -1285 90 -92 93 -87 38 -87 974 0
909 -3 875 69 958 54 64 95 85 189 101 22 3 574 6 1226 5 1132 -1 1188 -1
1237 -19z"/>
</g>
</svg>
